ply
format ascii 1.0
element vertex 889
property float x
property float y
property float z
end_header
0 23 30
1 17 24
1 25 29
1 33 31
3 33 17
4 23 22
5 20 13
5 22 18
5 28 29
5 37 11
6 35 1
7 22 15
7 27 21
7 28 20
7 33 13
8 19 20
8 21 20
9 24 26
9 28 31
9 31 20
10 18 17
10 22 18
10 24 20
10 26 18
10 36 24
11 21 17
11 23 34
11 26 31
11 27 12
11 27 31
11 28 18
11 29 10
11 29 13
11 32 15
11 32 28
11 34 9
11 39 47
12 23 11
12 23 22
12 23 23
12 24 22
12 25 20
12 36 14
12 38 14
12 38 18
12 48 18
12 50 37
13 21 20
13 22 15
13 22 16
13 25 10
13 27 22
13 29 21
13 30 21
13 39 8
13 39 27
14 15 23
14 15 28
14 18 15
14 21 11
14 21 23
14 25 30
14 26 21
14 27 11
14 27 19
14 27 21
14 28 19
14 29 26
14 30 21
14 31 8
14 32 8
14 33 21
14 34 7
14 34 17
14 34 26
14 35 26
14 39 21
14 40 14
15 26 18
15 30 15
15 30 20
15 31 9
15 31 22
15 31 29
15 32 24
15 33 22
15 34 22
15 35 14
15 35 15
15 35 28
15 36 15
15 37 13
15 40 14
15 40 15
15 41 27
15 43 23
15 44 12
15 46 18
16 20 27
16 22 25
16 26 20
16 27 21
16 28 12
16 29 25
16 30 25
16 33 6
16 37 13
16 38 21
16 40 24
16 41 23
16 42 20
16 42 22
16 44 13
16 45 8
16 47 25
17 21 25
17 21 26
17 22 22
17 24 12
17 25 12
17 25 13
17 26 6
17 26 16
17 27 14
17 27 16
17 27 25
17 28 12
17 29 4
17 29 13
17 30 22
17 31 20
17 32 20
17 32 27
17 33 13
17 35 20
17 35 24
17 36 22
17 44 22
17 45 16
18 4 35
18 10 1
18 17 7
18 20 15
18 22 6
18 23 7
18 24 13
18 24 19
18 26 7
18 27 17
18 28 25
18 29 4
18 30 13
18 30 26
18 30 31
18 32 27
18 32 35
18 35 13
18 35 22
18 35 35
18 36 24
18 37 15
18 37 30
18 40 11
18 40 15
18 40 16
18 40 21
18 44 22
19 7 18
19 20 14
19 21 23
19 23 23
19 24 14
19 25 21
19 26 14
19 27 13
19 27 14
19 27 25
19 27 27
19 28 25
19 29 10
19 29 17
19 29 18
19 33 29
19 40 18
19 41 19
19 44 22
19 51 29
20 5 10
20 12 37
20 16 6
20 18 7
20 20 14
20 22 13
20 22 22
20 23 20
20 24 10
20 25 11
20 26 10
20 26 25
20 29 18
20 32 17
20 33 12
20 33 30
20 34 20
20 35 7
20 36 6
20 36 11
20 36 27
20 36 28
20 39 22
20 41 17
20 42 12
20 43 18
20 44 18
20 44 20
20 44 24
20 47 5
20 48 12
21 5 17
21 14 7
21 16 20
21 21 10
21 21 15
21 22 30
21 23 20
21 24 14
21 24 18
21 24 31
21 24 32
21 28 8
21 28 24
21 28 25
21 29 20
21 29 22
21 31 10
21 31 12
21 31 14
21 31 15
21 32 9
21 32 15
21 32 26
21 33 15
21 34 23
21 35 18
21 36 21
21 36 31
21 39 7
21 40 34
21 41 8
21 41 16
21 41 17
21 42 24
21 42 25
21 43 13
21 43 24
21 44 17
21 44 20
21 51 28
22 8 37
22 10 16
22 12 28
22 13 21
22 16 20
22 21 20
22 21 26
22 22 3
22 22 8
22 22 20
22 23 8
22 24 13
22 24 24
22 24 26
22 25 13
22 26 5
22 26 37
22 27 9
22 27 11
22 27 17
22 27 19
22 29 17
22 29 24
22 30 9
22 30 40
22 31 16
22 31 21
22 31 26
22 31 27
22 32 15
22 33 15
22 33 25
22 34 20
22 34 28
22 35 26
22 36 39
22 38 8
22 38 20
22 40 13
22 40 17
22 40 20
22 40 21
22 41 17
22 41 20
22 41 22
22 44 30
22 49 28
23 9 27
23 12 11
23 17 5
23 18 10
23 19 24
23 22 9
23 23 3
23 23 16
23 24 11
23 25 8
23 25 14
23 26 26
23 27 11
23 27 23
23 28 23
23 28 24
23 28 35
23 29 16
23 29 18
23 29 19
23 29 27
23 29 38
23 30 18
23 30 21
23 30 28
23 32 7
23 32 17
23 32 20
23 32 21
23 36 8
23 37 13
23 37 29
23 38 6
23 38 8
23 39 14
23 40 18
23 40 25
23 40 28
23 41 24
23 42 16
23 42 17
23 43 10
23 43 17
23 43 22
23 43 23
23 48 26
24 7 18
24 15 31
24 17 0
24 19 16
24 20 12
24 20 13
24 20 16
24 24 11
24 24 18
24 27 15
24 29 12
24 30 27
24 31 13
24 31 18
24 32 18
24 34 8
24 34 9
24 35 27
24 36 7
24 36 20
24 37 13
24 37 22
24 37 27
24 37 36
24 39 18
24 41 16
24 41 17
24 41 28
24 44 17
24 44 22
24 45 25
24 50 26
25 2 28
25 12 27
25 15 17
25 16 9
25 16 47
25 17 9
25 17 22
25 17 23
25 19 16
25 20 16
25 25 15
25 25 23
25 26 1
25 26 2
25 27 37
25 28 23
25 28 36
25 29 17
25 31 24
25 32 12
25 32 30
25 33 7
25 34 26
25 35 16
25 35 23
25 35 35
25 36 17
25 37 14
25 37 30
25 37 31
25 38 10
25 39 16
25 40 5
25 40 28
25 40 33
25 41 34
25 45 18
25 49 7
26 12 35
26 16 21
26 16 31
26 17 20
26 17 27
26 18 7
26 18 19
26 20 8
26 21 16
26 22 12
26 22 30
26 23 20
26 24 20
26 24 27
26 25 21
26 26 35
26 27 13
26 27 36
26 28 25
26 28 26
26 28 27
26 28 36
26 30 12
26 31 5
26 31 15
26 31 16
26 31 21
26 32 8
26 32 21
26 33 27
26 35 18
26 35 25
26 36 11
26 37 19
26 37 29
26 38 14
26 38 17
26 38 18
26 38 32
26 40 22
26 41 11
26 41 22
26 42 27
26 43 29
26 44 42
26 48 0
27 0 30
27 9 16
27 13 22
27 17 9
27 17 24
27 19 9
27 19 10
27 19 24
27 20 9
27 20 15
27 20 19
27 21 28
27 22 22
27 22 32
27 22 42
27 24 12
27 24 13
27 24 18
27 25 35
27 25 36
27 28 12
27 30 10
27 30 23
27 31 0
27 31 12
27 32 26
27 33 21
27 33 24
27 34 10
27 34 11
27 34 13
27 34 15
27 36 19
27 36 26
27 38 18
27 39 19
27 40 18
27 43 9
27 45 23
28 1 28
28 10 19
28 15 13
28 17 16
28 18 13
28 19 17
28 19 29
28 20 13
28 20 14
28 20 18
28 22 10
28 22 11
28 23 10
28 25 28
28 26 19
28 26 21
28 26 28
28 27 20
28 29 16
28 31 4
28 31 23
28 32 23
28 33 9
28 33 20
28 34 13
28 34 21
28 34 27
28 35 19
28 36 17
28 36 26
28 36 33
28 36 36
28 37 9
28 37 16
28 37 19
28 37 33
28 38 19
28 39 10
28 39 11
28 39 19
28 40 16
28 42 8
28 42 26
28 43 9
28 44 18
28 44 39
28 44 41
29 1 37
29 16 10
29 18 12
29 18 15
29 18 21
29 19 21
29 22 19
29 23 10
29 23 16
29 23 27
29 24 11
29 24 12
29 25 11
29 25 25
29 26 38
29 27 11
29 27 32
29 28 10
29 29 21
29 30 12
29 31 23
29 32 21
29 32 22
29 33 23
29 33 31
29 34 26
29 35 16
29 36 13
29 36 18
29 38 6
29 38 9
29 38 20
29 39 35
29 40 11
29 41 27
29 41 38
29 43 39
29 46 27
29 47 25
29 47 26
29 56 32
30 12 27
30 16 5
30 18 21
30 19 14
30 19 19
30 19 35
30 20 24
30 21 31
30 22 4
30 23 10
30 23 20
30 24 11
30 24 14
30 25 20
30 26 10
30 26 18
30 26 19
30 26 29
30 27 12
30 28 19
30 28 25
30 29 11
30 29 26
30 30 25
30 31 13
30 31 20
30 32 21
30 32 23
30 32 24
30 34 7
30 34 18
30 34 20
30 35 15
30 35 16
30 35 17
30 35 32
30 36 28
30 37 28
30 38 21
30 41 28
30 45 24
30 45 32
31 4 39
31 12 14
31 18 18
31 19 20
31 19 21
31 20 9
31 23 27
31 24 17
31 25 5
31 25 31
31 26 29
31 26 41
31 27 23
31 29 7
31 29 12
31 31 5
31 32 6
31 32 11
31 32 23
31 33 6
31 34 33
31 36 20
31 37 19
31 37 25
31 37 32
31 39 27
31 39 37
31 44 28
31 47 8
32 8 32
32 11 17
32 18 17
32 21 14
32 22 15
32 22 20
32 24 27
32 25 9
32 25 23
32 26 27
32 26 31
32 29 20
32 29 26
32 29 29
32 30 25
32 31 15
32 31 24
32 33 20
32 34 11
32 35 17
32 36 20
32 36 22
32 36 24
32 36 40
32 38 19
32 38 28
32 40 18
32 41 16
32 41 17
32 45 31
33 11 12
33 13 42
33 22 22
33 23 27
33 25 15
33 26 14
33 26 34
33 28 16
33 28 17
33 28 19
33 28 28
33 30 20
33 30 29
33 32 15
33 33 17
33 36 20
33 37 10
33 37 27
33 40 28
33 40 29
34 14 5
34 14 19
34 15 3
34 20 9
34 20 10
34 20 19
34 21 20
34 22 24
34 25 7
34 25 8
34 25 22
34 25 24
34 25 27
34 26 13
34 26 27
34 26 33
34 27 20
34 27 24
34 27 33
34 29 10
34 29 18
34 29 21
34 31 12
34 31 13
34 34 26
34 35 11
34 35 30
34 36 31
34 42 23
35 20 40
35 21 9
35 25 14
35 26 21
35 27 34
35 28 34
35 29 22
35 30 44
35 32 23
35 33 18
35 36 1
35 41 26
36 5 40
36 16 13
36 16 18
36 16 24
36 17 15
36 20 39
36 23 33
36 24 20
36 24 21
36 24 22
36 24 27
36 25 3
36 25 28
36 26 21
36 28 13
36 29 26
36 31 25
36 32 35
36 35 14
36 39 12
36 42 14
37 16 24
37 19 35
37 23 14
37 23 16
37 24 17
37 25 11
37 27 13
37 28 9
37 28 36
37 29 18
37 30 25
37 34 28
37 35 30
37 36 19
37 36 25
37 38 5
37 40 10
38 0 25
38 9 14
38 12 31
38 16 6
38 16 12
38 17 36
38 18 25
38 23 10
38 25 22
38 26 30
38 26 34
38 26 35
38 27 21
38 27 30
38 27 31
38 31 21
38 35 30
38 35 31
38 36 31
38 37 31
38 41 22
39 17 23
39 18 28
39 21 17
39 23 27
39 25 25
39 26 26
39 28 9
39 29 25
39 31 23
39 32 18
39 32 22
39 33 24
39 34 25
40 20 18
40 20 24
40 23 25
40 26 26
40 28 17
40 29 18
40 33 22
40 37 13
41 8 29
41 21 20
41 22 12
41 22 15
41 22 21
41 23 24
41 25 14
41 25 34
41 26 23
41 31 35
41 35 27
41 36 27
41 41 18
42 6 8
42 21 16
42 21 24
42 22 13
42 23 15
42 27 23
42 31 12
42 35 39
42 46 28
43 22 10
43 22 12
43 22 35
43 23 14
43 31 27
43 38 18
44 13 24
44 14 15
44 14 16
44 23 30
44 24 30
44 42 15
45 10 9
45 34 28
45 35 23
45 36 22
46 19 20
46 23 20
46 23 23
46 30 26
46 38 26
47 28 20
47 33 28
47 38 26
47 38 27
47 39 26
47 39 27
49 19 12
50 30 3
51 38 20
51 38 21
